<svg width="32" height="32" viewBox="0 0 32 32" xmlns="http://www.w3.org/2000/svg">
  <rect width="32" height="32" rx="6" fill="#0C0C0C"/>
  <polygon points="32,16 32,32 16,32" fill="#E84B0A"/>
  <rect x="3" y="19" width="20" height="5" rx="2.5" fill="#EDE4D0" transform="rotate(-32 13 21.5)"/>
  <rect x="3" y="19" width="6" height="5" rx="2.5" fill="#C8915A" transform="rotate(-32 13 21.5)"/>
  <circle cx="22" cy="12" r="4" fill="#FF4400" opacity="0.9"/>
  <circle cx="22" cy="12" r="2.5" fill="#FF8800"/>
  <circle cx="22" cy="12" r="1.2" fill="#FFDD44"/>
  <path d="M20 10 C19 8 21 6 20 4 C19 2 21 1 20 0" fill="none" stroke="white" stroke-width="1.5" stroke-linecap="round" opacity="0.55"/>
  <path d="M23 9 C22.5 7.5 24 6 23.5 4.5 C23 3 24 2 23.5 1" fill="none" stroke="white" stroke-width="1" stroke-linecap="round" opacity="0.30"/>
</svg>
